<svg width="99" height="91" viewBox="0 0 99 91" fill="none" xmlns="http://www.w3.org/2000/svg">
<path fill-rule="evenodd" clip-rule="evenodd" d="M79.5299 15.6393C80.6281 13.9428 81.1939 11.9567 81.1547 9.93622C81.1038 7.3174 80.0409 4.82007 78.1886 2.96794C76.3364 1.1158 73.8389 0.0527767 71.22 0.00191159C69.1994 -0.0373324 67.2132 0.528457 65.5167 1.62661C63.8201 2.72475 62.4908 4.30512 61.6993 6.16457C60.9078 8.02402 60.6904 10.0776 61.075 12.0616C61.4597 14.0455 62.4287 15.8691 63.8578 17.2981C65.2868 18.7271 67.1105 19.6962 69.0945 20.0808C71.0786 20.4655 73.1322 20.2481 74.9918 19.4566C76.8513 18.6652 78.4317 17.3358 79.5299 15.6393ZM59.3315 45.1032L59.8945 32.9172C57.3777 31.2284 54.9602 29.6058 52.5759 27.95C47.2654 23.9773 43.1242 18.6465 40.588 12.5188C40.0429 11.5359 39.7569 10.4305 39.7569 9.30666C39.7569 8.18279 40.0429 7.0774 40.588 6.09457C44.2638 3.94213 45.6216 4.17402 47.9397 7.31988C48.1712 7.64228 48.4006 7.96674 48.63 8.2912L48.6302 8.29157L48.6303 8.29166L48.6304 8.29185C49.3198 9.26688 50.0092 10.2419 50.7545 11.1611C53.331 14.7796 56.6912 17.7698 60.5846 19.9085C64.478 22.0472 68.8041 23.2793 73.2402 23.5127C82.7444 23.877 89.1357 29.1753 93.4408 37.3215C93.7831 37.9708 94.13 38.6202 94.4772 39.2702L94.4777 39.2711L94.4781 39.272L94.4786 39.2729L94.4788 39.2732C95.4413 41.075 96.4064 42.8815 97.2821 44.7059C97.8352 45.8972 98.1823 47.1737 98.3087 48.481C98.4836 49.4723 98.2624 50.4925 97.6926 51.3224C97.1229 52.1522 96.2501 52.7253 95.2621 52.9183C93.1427 53.4481 91.7518 52.5541 90.4603 50.4678C88.3409 46.9577 86.089 43.58 83.8371 40.2024C83.0752 39.3381 82.2201 38.5607 81.2873 37.8843C79.95 38.8204 80.1031 39.9293 80.2464 40.9667L80.2465 40.9668C80.2806 41.2138 80.3141 41.4568 80.3269 41.6925C80.7724 50.8246 81.2478 59.9716 81.723 69.1135L81.7236 69.1246L81.7242 69.1358L81.7248 69.1484C81.9555 73.5864 82.1861 78.023 82.4132 82.4562C82.4794 83.3822 82.4794 84.3119 82.4132 85.2379C82.3962 86.5794 81.8581 87.8617 80.9124 88.8135C79.9668 89.7653 78.6879 90.3117 77.3465 90.3374C76.0041 90.4193 74.6838 89.9677 73.6728 89.0808C72.6619 88.1939 72.0422 86.9436 71.9486 85.6021C71.6586 83.3115 71.5464 80.9956 71.4341 78.6764V78.6763L71.4338 78.6706L71.4235 78.4581C71.411 78.2014 71.3985 77.9446 71.3857 77.6878C71.2754 75.1397 71.1687 72.5916 71.0621 70.0434L71.0621 70.0429L71.062 70.0424L71.062 70.0419C70.8485 64.9411 70.6351 59.8403 70.3922 54.7395C70.4891 53.1472 70.1485 51.5588 69.4071 50.1462C68.6658 48.7336 67.552 47.5508 66.1865 46.7259C63.9737 45.916 61.6726 45.3712 59.3315 45.1032ZM23.2684 49.4743L15.6517 52.1235V60.104C15.718 61.0384 15.4519 61.9663 14.9006 62.7237C14.3492 63.481 13.5479 64.0192 12.6382 64.2433C12.0347 64.4469 11.3916 64.5051 10.7613 64.4128C10.131 64.3206 9.53157 64.0806 9.01172 63.7125C8.49187 63.3444 8.06641 62.8587 7.77008 62.2949C7.47376 61.7311 7.31494 61.1052 7.30662 60.4683C7.13007 57.6658 7.18882 54.8487 7.24767 52.0266C7.27713 50.6138 7.30662 49.1997 7.30662 47.7856C7.36058 46.917 7.66878 46.0834 8.19282 45.3887C8.71686 44.6939 9.43355 44.1686 10.2539 43.878C11.179 43.4608 12.0843 43.0237 12.9969 42.5831C13.7503 42.2193 14.5088 41.8532 15.2875 41.4938V31.5595L10.7175 28.4137C6.3231 25.3696 2.87903 21.145 0.782808 16.2275C0.223784 15.3024 -0.0465382 14.2317 0.00655671 13.1522C0.0596516 12.0726 0.433736 11.0334 1.08084 10.1676L4.85608 9.86963L7.80333 13.9427C9.73437 16.8015 12.2921 19.1822 15.2819 20.9037C18.2716 22.6252 21.6146 23.6421 25.0566 23.877C28.7226 23.9743 32.2762 25.1641 35.2616 27.294C38.247 29.4238 40.5283 32.3965 41.8132 35.8312C42.1705 36.6479 42.5977 37.4296 43.0231 38.2078C43.4256 38.9442 43.8263 39.6774 44.1645 40.4342C45.9858 44.3748 44.7274 46.2291 39.8925 46.3616C39.0254 45.2499 38.3374 43.9405 37.6344 42.6024L37.6343 42.6024L37.6343 42.6023C36.2431 39.9545 34.7929 37.1944 31.7791 35.6326V50.0042C31.894 53.8342 32.0865 57.7418 32.2796 61.6629C32.4204 64.5221 32.5616 67.3884 32.6733 70.237C32.6733 73.5485 31.4149 75.1379 28.865 75.2704C26.3151 75.4028 24.5599 73.8795 24.3612 70.4688C24.1026 66.4254 23.9275 62.3821 23.7528 58.3506L23.7528 58.3504L23.7528 58.3502L23.7528 58.35C23.6814 56.7027 23.6102 55.0574 23.5333 53.4149C23.561 52.6118 23.4729 51.6697 23.3465 50.3175C23.3218 50.0528 23.2955 49.7724 23.2684 49.4743ZM55.9867 62.2236V54.3092C56.0107 52.9285 56.5599 51.6089 57.5224 50.6187C58.4849 49.6285 59.7885 49.0421 61.168 48.9789C62.5475 48.9156 63.8993 49.3801 64.9484 50.278C65.9975 51.176 66.6652 52.4398 66.8156 53.8125C67.0039 56.1697 67.0592 58.5356 66.9811 60.899V69.9392C67.0537 71.4163 66.5421 72.8627 65.5568 73.9657C64.5715 75.0687 63.1918 75.7396 61.7158 75.8335C60.9577 75.8715 60.2002 75.7502 59.4919 75.4774C58.7836 75.2046 58.1404 74.7864 57.6038 74.2498C57.0671 73.7131 56.6488 73.0699 56.376 72.3617C56.1032 71.6535 55.9819 70.896 56.0198 70.138C55.927 68.2813 55.948 66.4247 55.9689 64.5795V64.5793C55.9778 63.7917 55.9867 63.0062 55.9867 62.2236ZM30.4525 18.1795C31.3109 16.9082 31.7726 15.4107 31.7792 13.8768C31.806 12.8559 31.6265 11.8402 31.2512 10.8905C30.8758 9.94074 30.3125 9.07662 29.5951 8.3499C28.8776 7.62318 28.0207 7.04883 27.0758 6.66135C26.1309 6.27387 25.1176 6.08119 24.0964 6.09492C22.5625 6.08183 21.059 6.52434 19.7768 7.36632C18.4945 8.20829 17.491 9.41192 16.8934 10.8247C16.2957 12.2374 16.1309 13.7957 16.4197 15.3022C16.7085 16.8087 17.438 18.1957 18.5157 19.2873C19.5934 20.3789 20.9709 21.1261 22.4737 21.4342C23.9764 21.7423 25.5368 21.5976 26.9572 21.0182C28.3775 20.4388 29.594 19.4508 30.4525 18.1795Z" fill="white"/>
</svg>
