<svg width="121" height="65" viewBox="0 0 121 65" fill="none" xmlns="http://www.w3.org/2000/svg">
<path fill-rule="evenodd" clip-rule="evenodd" d="M63.9178 4.74032C64.2911 3.122 64.02 1.42184 63.162 0C62.3724 0.348873 61.675 0.877009 61.1249 1.54257C60.5749 2.20813 60.1874 2.99265 59.9933 3.83411C59.7992 4.67558 59.8038 5.55086 60.0067 6.39025C60.2096 7.22963 60.6053 8.01016 61.1622 8.66992C62.5562 7.768 63.5445 6.35864 63.9178 4.74032ZM51.6629 1.83447C55.6627 5.05787 55.8292 5.50241 54.1071 9.05927C49.9407 5.78029 49.9408 5.66921 51.6629 1.83447ZM72.4745 9.32707C72.9638 8.80246 73.4774 8.25175 74.05 7.72564C68.9949 6.55854 68.5504 6.78092 66.1617 11.4493C69.1445 12.8975 70.638 11.2962 72.4745 9.32707ZM38.1925 22.9286C38.7236 21.6506 38.9971 20.2802 38.997 18.8961C39.0275 16.1037 37.9625 13.4107 36.0308 11.3949C34.099 9.37919 31.4543 8.20136 28.6644 8.11426C25.8792 8.20843 23.2312 9.34626 21.2453 11.3022C19.2594 13.2581 18.0807 15.8891 17.943 18.6737C18.0361 21.451 19.1656 24.0928 21.109 26.0782C23.0524 28.0636 25.6686 29.2486 28.4421 29.3999C29.8256 29.4072 31.1969 29.1409 32.4771 28.6163C33.7574 28.0917 34.9213 27.3192 35.9021 26.3431C36.8829 25.367 37.6614 24.2066 38.1925 22.9286ZM40.386 39.5712V63.6913H16.6654V50.4085C12.844 53.1451 11.6441 56.6686 10.4924 60.0504C10.0537 61.3387 9.62195 62.6065 9.05492 63.8024H0C0.043349 61.7702 0.247766 59.7446 0.611155 57.7446C1.95468 52.1317 4.69693 46.9506 8.58244 42.6844C12.4679 38.4181 17.3702 35.2058 22.8318 33.3467C25.7507 32.2718 28.7635 31.4716 31.8311 30.9568C36.2176 30.2115 40.3849 28.5046 44.0345 25.9584C47.6841 23.4121 50.7254 20.0896 52.9406 16.2291C53.4678 15.2626 54.0618 14.3341 54.7183 13.4503C55.4034 12.5565 56.3918 11.9443 57.497 11.7293C58.6022 11.5143 59.7477 11.7114 60.7177 12.2833C61.2389 12.4898 61.7132 12.7994 62.112 13.1935C62.5107 13.5877 62.8258 14.0584 63.0384 14.5773C63.2511 15.0962 63.3569 15.6528 63.3495 16.2135C63.3421 16.7743 63.2216 17.3278 62.9954 17.8409C61.4759 21.2268 59.6146 24.4485 57.4402 27.4557C52.8794 32.8812 47.0093 37.0514 40.386 39.5712ZM80.0495 63.6355V39.9601C76.6299 38.1998 73.3102 36.2516 70.1057 34.1245C67.3754 31.9472 64.7608 29.6283 62.2729 27.1774L67.0505 18.2852C69.4973 20.1482 71.9358 22.0197 74.3723 23.8898C78.1867 26.8173 81.9965 29.7413 85.8269 32.624C88.7711 34.847 90.6043 34.9025 97.4372 33.4019C103.732 35.5708 109.268 39.5073 113.386 44.7406C117.504 49.9739 120.028 56.2826 120.658 62.913C117.798 64.1853 114.607 64.5162 111.547 63.8578L105.992 51.1308L104.492 51.4088L103.826 63.6355H80.0495ZM101.826 18.8965C101.857 20.2817 101.606 21.6586 101.088 22.9438C100.571 24.229 99.7974 25.3956 98.8155 26.3727C97.8336 27.3498 96.6634 28.117 95.3761 28.628C94.0888 29.1389 92.7111 29.3829 91.3267 29.3449C89.2165 29.3667 87.1478 28.7586 85.3848 27.5981C83.6219 26.4377 82.2449 24.7775 81.4299 22.8302C80.6148 20.8828 80.3988 18.7366 80.8092 16.6657C81.2197 14.5948 82.238 12.6933 83.7341 11.2044C85.2303 9.71548 87.1363 8.70682 89.2084 8.30717C91.2806 7.90752 93.4248 8.13508 95.367 8.96083C97.3091 9.78658 98.961 11.173 100.112 12.9428C101.262 14.7127 101.859 16.7855 101.826 18.8965Z" fill="white"/>
</svg>
