<svg width="73" height="90" viewBox="0 0 73 90" fill="none" xmlns="http://www.w3.org/2000/svg">
<path fill-rule="evenodd" clip-rule="evenodd" d="M46.1599 20.1318C44.1768 20.143 42.2344 19.568 40.5768 18.4793C38.9191 17.3906 37.6201 15.8366 36.8426 14.0122C36.0651 12.1878 35.8438 10.1744 36.2066 8.22477C36.5693 6.2751 37.4999 4.47605 38.8815 3.05336C40.2631 1.63068 42.0343 0.647782 43.9725 0.228045C45.9108 -0.191692 47.9299 -0.0295412 49.7764 0.694099C51.6228 1.41774 53.2144 2.67065 54.3513 4.29557C55.4882 5.92049 56.1198 7.84494 56.1667 9.82751C56.2066 11.1664 55.9773 12.4997 55.4923 13.7483C55.0072 14.997 54.2764 16.1355 53.3432 17.0964C52.41 18.0574 51.2933 18.8212 50.0594 19.3426C48.8255 19.864 47.4995 20.1324 46.1599 20.1318ZM28.3496 50.24L29.0048 53.3968C27.8871 54.3205 26.7751 55.207 25.6786 56.0811C23.2399 58.0251 20.878 59.9081 18.7002 62.0035C16.182 64.6829 13.8345 67.5176 11.6716 70.491C11.128 71.2706 10.6969 72.1227 10.3909 73.0224C8.87204 76.894 9.97399 79.3659 14.0244 80.2593C16.5782 80.8001 19.2005 80.9407 21.7975 80.6762C27.0994 80.0931 32.2759 78.6759 37.1354 76.477L42.4069 65.5475L36.8673 60.2465C33.4453 57.1729 31.3166 52.9157 30.9109 48.3341C30.2974 42.9054 29.9794 37.4474 29.9579 31.9842C29.9083 30.4185 30.2215 28.8626 30.8731 27.4381C31.5248 26.0136 32.4972 24.7592 33.7142 23.7729C34.9313 22.7866 36.36 22.0952 37.8886 21.7528C39.4173 21.4104 41.0045 21.4263 42.526 21.7992C44.2012 21.9664 45.7856 22.6403 47.068 23.7311C48.3503 24.8219 49.2698 26.2776 49.7036 27.9043C50.1205 29.2444 50.5374 30.6143 50.9245 31.9842C52.95 39.1627 57.1035 45.5588 62.8374 50.3293C64.3328 51.8073 65.6612 53.4452 66.7985 55.2135C67.4011 55.8401 68.2181 56.1741 69.0386 56.5096C70.246 57.0032 71.4607 57.4999 72.0104 58.9361C72.0104 59.2637 72.0104 59.5912 71.7424 59.7103C58.7871 69.2105 45.5042 78.1448 29.7792 82.5226C24.7784 84.1609 19.4582 84.5796 14.2626 83.7436C7.38289 82.3439 4.91096 77.7875 7.56158 71.4143C7.74028 70.9676 7.91898 70.5209 8.12745 70.104C12.6544 61.6462 19.9213 55.8388 28.3496 50.24ZM65.49 59.1837L65.4898 59.1835C65.3885 59.0492 65.3411 58.9863 65.2796 58.9658C65.2639 58.9606 65.2382 58.9499 65.2054 58.9362C65.0513 58.872 64.742 58.7433 64.5947 58.8169C63.2596 59.3229 61.8078 59.4374 60.4099 59.1473C59.012 58.8572 57.7258 58.1744 56.7023 57.179C50.9783 53.0856 46.2542 47.7508 42.8834 41.5737C42.3771 40.6803 41.841 39.7868 41.2156 38.7743L39.1308 39.7571C39.3769 40.5989 39.6753 41.4244 40.0243 42.2289C43.0575 48.5785 47.6221 54.0741 53.3072 58.2213C56.9704 60.9611 57.1789 61.4376 56.9406 66.0239C60.0789 64.1406 63.0045 61.9241 65.6668 59.4126C65.5926 59.3199 65.5358 59.2445 65.49 59.1837ZM37.7009 65.994L29.9278 57.0597C28.6991 58.2883 27.4704 59.4714 26.2521 60.6444L26.2519 60.6446C24.5173 62.3146 22.804 63.9643 21.142 65.6962C20.7421 66.0823 20.4241 66.545 20.2069 67.0567C19.9896 67.5683 19.8777 68.1185 19.8777 68.6743C19.8777 69.2302 19.9896 69.7803 20.2069 70.292C20.4241 70.8036 20.7421 71.2663 21.142 71.6524C21.7308 72.6434 22.6889 73.36 23.8058 73.6448C24.9228 73.9296 26.1071 73.7593 27.0985 73.1713C29.6073 71.6578 32.0294 69.9566 34.4756 68.2386L34.4757 68.2385L34.4762 68.2382C35.5435 67.4886 36.6153 66.7358 37.7009 65.994ZM35.4299 83.6638L35.4321 83.663C37.3563 82.9184 39.2445 82.1878 41.0967 81.3312C43.4793 80.2293 45.7725 79.187 48.3338 78.3531C46.6919 81.9739 44.4574 85.2954 41.7221 88.1808C41.0161 88.8362 40.1125 89.2387 39.153 89.3249C38.1935 89.4111 37.2325 89.1763 36.4209 88.6573C35.517 88.3926 34.7444 87.8003 34.2542 86.9962C33.764 86.192 33.5915 85.2339 33.7703 84.3093C34.3265 84.0908 34.8797 83.8767 35.4299 83.6638ZM8.90185 62.3612L10.927 59.3831C9.08052 57.9834 8.27638 58.6385 7.65096 59.7106C7.22552 60.3379 6.7971 60.9631 6.36879 61.5881C4.45836 64.3761 2.5502 67.1607 0.920226 70.1043C0.2281 71.7399 -0.0776927 73.5131 0.0267034 75.2861C-0.0255157 75.634 -0.000939117 75.9891 0.098596 76.3266C0.198131 76.664 0.370252 76.9756 0.602935 77.2395C0.835618 77.5034 1.12323 77.7132 1.44556 77.8542C1.76789 77.9953 2.11714 78.064 2.46887 78.0557C2.52417 77.8806 2.608 77.6941 2.69299 77.505C2.88263 77.0831 3.07804 76.6483 2.97521 76.2987C2.66861 74.957 2.65618 73.5648 2.93895 72.2179C3.22171 70.8709 3.79292 69.6012 4.6132 68.4961C5.5538 66.9783 6.60181 65.5373 7.65811 64.0849C8.07342 63.5139 8.49001 62.9411 8.90185 62.3612ZM56.2859 75.3752L69.5986 65.1902C71.0579 65.8156 71.1473 66.9175 70.1645 67.7215C66.3921 70.7195 62.5402 73.6479 58.6089 76.5069C58.2114 76.7719 57.4128 76.5652 56.7381 76.3906C56.6546 76.369 56.5731 76.3479 56.4944 76.3282L56.2859 75.3752ZM56.7918 37.9698C58.2176 41.3934 60.4932 44.3967 63.4035 46.6956C64.3197 46.4182 65.0952 45.8011 65.5714 44.9707C66.0475 44.1403 66.1882 43.1593 65.9648 42.2285C65.8556 41.4017 65.4843 40.6318 64.9054 40.0315C64.3266 39.4312 63.5705 39.0322 62.7483 38.893C61.5584 38.6199 60.3685 38.4618 59.0364 38.2849C58.3346 38.1916 57.5933 38.0931 56.7918 37.9698Z" fill="white"/>
</svg>
