<svg width="114" height="65" viewBox="0 0 114 65" fill="none" xmlns="http://www.w3.org/2000/svg">
<path fill-rule="evenodd" clip-rule="evenodd" d="M97.9138 21.8057C99.2832 22.3959 100.758 22.704 102.249 22.7116C104.5 22.7769 106.719 22.1717 108.625 20.9728C110.532 19.7739 112.038 18.0356 112.954 15.9785C113.87 13.9214 114.154 11.6384 113.77 9.41968C113.386 7.20091 112.35 5.14652 110.796 3.51735C109.241 1.88818 107.238 0.757823 105.039 0.269885C102.841 -0.218053 100.547 -0.0416257 98.4492 0.776888C96.3513 1.5954 94.544 3.01905 93.257 4.86686C91.9701 6.71468 91.2614 8.90328 91.2211 11.1547C91.1587 12.6445 91.3974 14.1316 91.9227 15.5271C92.4481 16.9225 93.2495 18.1977 94.2789 19.2765C95.3083 20.3553 96.5445 21.2155 97.9138 21.8057ZM80.3589 35.6594L59.2311 36.5536C59.0395 37.4479 58.9177 38.3557 58.8669 39.2689C58.9632 41.4243 59.077 43.5797 59.1909 45.7352V45.7352C59.3901 49.5073 59.5894 53.2793 59.6947 57.0513C59.846 57.9087 59.7976 58.7893 59.5532 59.6249C59.3088 60.4604 58.875 61.2284 58.2855 61.8691C57.6961 62.5098 56.9667 63.0059 56.1544 63.319C55.342 63.6321 54.4684 63.7536 53.6015 63.6742C44.8589 63.906 36.1163 63.906 27.3738 63.6742C26.399 63.5341 25.4718 63.1635 24.6689 62.5932C23.8661 62.023 23.2109 61.2695 22.7576 60.3953C22.3043 59.5211 22.066 58.5514 22.0625 57.5667C22.059 56.582 22.2905 55.6107 22.7376 54.7333C23.3596 53.5777 24.0681 52.4707 24.8569 51.4219L45.19 49.6006C45.0518 48.5375 44.9136 47.5119 44.7787 46.5108L44.7785 46.5094C44.4932 44.3926 44.2226 42.3848 43.9978 40.3617C43.9129 39.637 43.8255 38.9123 43.738 38.1873L43.7376 38.1838C43.3815 35.233 43.0249 32.2779 42.8388 29.3015C42.607 25.5927 43.9979 21.9833 50.0581 21.3541C54.2679 20.917 58.5577 20.2243 62.8496 19.5312L62.8497 19.5311C64.7361 19.2265 66.6229 18.9218 68.5035 18.6387C69.6956 18.4589 70.8877 18.2738 72.0798 18.0886L72.0798 18.0886C75.0603 17.6257 78.0408 17.1628 81.0213 16.7843C82.5644 16.3965 84.176 16.368 85.7319 16.7009C87.2877 17.0339 88.7464 17.7195 89.9956 18.7049C91.0471 19.5222 91.8937 20.5731 92.4685 21.7744C93.0433 22.9757 93.3304 24.2943 93.3072 25.6258V58.1441C93.3569 58.8054 93.3569 59.4696 93.3072 60.131C93.1618 61.3788 92.5751 62.5336 91.6528 63.3867C90.7306 64.2399 89.5336 64.7351 88.2782 64.7831C87.0228 64.8311 85.7916 64.4286 84.8069 63.6483C83.8223 62.8681 83.149 61.7614 82.9088 60.5283C82.5012 57.9739 82.2943 55.3749 82.0868 52.7678V52.7677C82.0414 52.1979 81.996 51.6278 81.9485 51.0577C81.2533 46.665 80.8596 41.8199 80.4221 36.4361L80.4221 36.4358L80.3589 35.6594ZM39.1961 36.7193H34.9241L7.57051 36.5537C3.3317 36.5537 1.41104 35.4278 0.384453 32.3482C-0.642135 29.2685 0.384462 27.6459 3.49734 24.9968C14.8892 23.6722 34.8579 23.4405 39.1961 24.5332V36.7193Z" fill="white"/>
</svg>
