<svg width="78" height="80" viewBox="0 0 78 80" fill="none" xmlns="http://www.w3.org/2000/svg">
<path d="M56.0473 51.525C55.3434 52.3531 54.5573 53.1031 53.625 53.6578V57.2422C63.7589 58.7016 70.6875 61.625 70.6875 65C70.6875 69.8328 56.5013 73.75 39 73.75C21.4988 73.75 7.3125 69.8328 7.3125 65C7.3125 61.625 14.2411 58.7031 24.375 57.2422V53.6578C23.4427 53.1031 22.6566 52.3531 21.9527 51.525C8.96848 53.9594 0 59.0703 0 65C0 73.2844 17.4616 80 39 80C60.5384 80 78 73.2844 78 65C78 59.0703 69.0315 53.9594 56.0473 51.525ZM39 20C44.3854 20 48.75 15.5234 48.75 10C48.75 4.47656 44.3854 0 39 0C33.6147 0 29.25 4.47656 29.25 10C29.25 15.5234 33.6147 20 39 20ZM29.25 50V65C29.25 67.7609 31.4331 70 34.125 70H43.875C46.5669 70 48.75 67.7609 48.75 65V50C51.4419 50 53.625 47.7609 53.625 45V30C53.625 25.8578 50.3511 22.5 46.3125 22.5H44.5148C42.8284 23.2859 40.9713 23.75 39 23.75C37.0287 23.75 35.1716 23.2859 33.4852 22.5H31.6875C27.6489 22.5 24.375 25.8578 24.375 30V45C24.375 47.7609 26.5581 50 29.25 50Z" fill="white"/>
</svg>
