<svg width="84" height="79" viewBox="0 0 84 79" fill="none" xmlns="http://www.w3.org/2000/svg">
<path fill-rule="evenodd" clip-rule="evenodd" d="M50.3386 15.0556C49.5654 15.1146 48.7883 15.0063 48.0607 14.7381C47.333 14.4699 46.6719 14.048 46.1219 13.5013C45.572 12.9545 45.1462 12.2956 44.8738 11.5695C44.6014 10.8435 44.4888 10.0673 44.5434 9.29375C45.0273 6.85174 45.8758 4.49632 47.0602 2.30658C47.5493 1.43131 48.3165 0.744352 49.2403 0.354459C50.1641 -0.0354334 51.1916 -0.105937 52.1599 0.154164C53.159 0.254236 54.0999 0.671496 54.8447 1.34482C55.5896 2.01814 56.0993 2.91218 56.2994 3.8961C56.5681 5.64886 56.4334 7.43984 55.9055 9.13266C55.3775 10.8255 54.4703 12.3755 53.2528 13.6648C52.7323 14.2089 51.7891 14.5334 51.0634 14.783C50.7735 14.8827 50.5183 14.9705 50.3386 15.0556ZM49.3119 78.3041L47.2919 53.1704C47.8462 52.88 48.3775 52.5478 48.8814 52.1769C59.1562 42.4823 66.344 29.9733 69.5456 16.2148C69.9637 14.5492 70.1201 12.8288 70.0093 11.1151C69.8583 9.82838 69.2629 8.63464 68.3258 7.73993C67.3887 6.84522 66.1688 6.3056 64.8764 6.21417C63.7743 5.92611 62.6046 6.05388 61.5907 6.57303C60.5768 7.09217 59.7895 7.96638 59.3791 9.02891C58.9779 9.85811 58.624 10.7095 58.3193 11.5788C55.7083 18.3988 51.957 24.7255 47.2256 30.2884C41.6194 37.113 33.6526 41.5809 24.9056 42.8056C19.9458 43.5856 15.0605 44.7819 10.3016 46.3819C7.65806 47.1526 5.30271 48.6906 3.53411 50.801C1.76552 52.9114 0.663271 55.4994 0.366854 58.2369C-0.253405 64.8561 -0.0866827 71.5255 0.863571 78.1055H13.5469V67.9393H15.6332C15.971 69.6443 16.2931 71.3571 16.6111 73.0473L16.6112 73.0479L16.6115 73.0496C16.9479 74.8383 17.2797 76.6019 17.6201 78.3041H49.3119ZM33.1122 12.3514C30.7608 10.742 27.9866 9.86253 25.1374 9.82334C23.2156 9.81023 21.3101 10.1775 19.5307 10.9038C17.7514 11.6302 16.1334 12.7013 14.7698 14.0556C13.4063 15.4099 12.3241 17.0206 11.5856 18.7949C10.8471 20.5691 10.467 22.4719 10.467 24.3937C10.4869 27.243 11.3474 30.0229 12.9408 32.3851C14.5342 34.7473 16.7895 36.5865 19.424 37.6722C22.0585 38.7579 24.9549 39.0418 27.7501 38.4881C30.5452 37.9345 33.1147 36.5681 35.1364 34.5602C37.1581 32.5522 38.542 29.9923 39.1146 27.2011C39.6872 24.4099 39.4231 21.5117 38.3552 18.8701C37.2874 16.2284 35.4636 13.9607 33.1122 12.3514ZM79.8964 10.5529C79.1036 10.2798 78.257 10.2001 77.4271 10.3202C76.4816 10.5555 75.5995 10.9964 74.844 11.6116C73.6406 12.8261 72.7428 14.309 72.2247 15.9383C71.7065 17.5676 71.5829 19.2966 71.8637 20.9831C72.1064 22.1543 72.7336 23.2109 73.6456 23.9849C74.5576 24.7589 75.7022 25.2058 76.8973 25.2548C78.0266 25.2418 79.1205 24.8592 80.0117 24.1655C80.9028 23.4717 81.5421 22.5051 81.8316 21.4135C82.4435 19.814 82.9521 18.1771 83.3548 16.5126C83.5111 15.6888 83.4684 14.8395 83.2302 14.0355C82.9921 13.2315 82.5652 12.496 81.9854 11.8903C81.4055 11.2845 80.6893 10.826 79.8964 10.5529Z" fill="white"/>
</svg>
