<svg width="71" height="67" viewBox="0 0 71 67" fill="none" xmlns="http://www.w3.org/2000/svg">
<path fill-rule="evenodd" clip-rule="evenodd" d="M57.2512 15.8001C57.8231 14.4255 58.1115 12.9497 58.099 11.461C58.1339 9.97332 57.8719 8.49364 57.3284 7.1084C56.7849 5.72316 55.9708 4.46014 54.9336 3.39311C53.8964 2.32608 52.6568 1.47648 51.2875 0.893909C49.9182 0.31134 48.4466 0.00750241 46.9585 0.000161384C43.9564 -0.0157793 41.0686 1.14975 38.9186 3.24502C36.7687 5.34029 35.5292 8.19713 35.468 11.1985C35.4487 12.6865 35.7247 14.1636 36.28 15.5443C36.8352 16.925 37.6588 18.1818 38.7029 19.2422C39.7471 20.3026 40.9911 21.1455 42.3631 21.722C43.7351 22.2985 45.2078 22.5973 46.696 22.601C48.1841 22.6482 49.6664 22.3943 51.0539 21.8545C52.4414 21.3147 53.7055 20.5002 54.7705 19.4598C55.8354 18.4194 56.6792 17.1746 57.2512 15.8001ZM20.2737 50.655L32.3766 36.7154L36.9553 39.2234C38.5557 40.1273 40.1523 41.033 41.748 41.9383C46.4333 44.5962 51.1108 47.2498 55.8533 49.8385C56.4131 50.2161 57.043 50.4776 57.7057 50.6073C58.3684 50.737 59.0504 50.7323 59.7113 50.5937C60.3721 50.455 60.9985 50.185 61.5531 49.7998C62.1077 49.4146 62.5794 48.922 62.9401 48.3512C63.3395 47.8042 63.6218 47.1807 63.7694 46.5197C63.9171 45.8587 63.9269 45.1744 63.7982 44.5095C63.6696 43.8445 63.4053 43.2132 63.0218 42.6549C62.6383 42.0966 62.1439 41.6234 61.5694 41.2647C60.758 40.6306 59.9474 39.9968 59.1373 39.3633C51.4157 33.3252 43.7362 27.32 35.8179 21.4343C33.9383 19.9009 31.6349 18.9785 29.2163 18.7909C26.7977 18.6033 24.3797 19.1593 22.286 20.3845C19.6179 21.7905 17.2189 23.6564 15.1993 25.8962C11.8421 29.7696 8.77168 33.8827 6.01268 38.2027C2.90369 43.0081 0.910656 48.4488 0.17996 54.1253C-0.283471 56.5064 0.155559 58.9746 1.41155 61.0499C2.66753 63.1251 4.65069 64.659 6.97513 65.3529C9.17883 66.0561 11.4878 66.3719 13.7994 66.2861C16.7279 66.2114 19.6181 66.0218 22.525 65.8312C25.292 65.6497 28.074 65.4673 30.9184 65.382C37.315 65.207 43.7212 65.207 50.1372 65.382C53.0571 65.4578 55.9031 65.7186 58.7552 65.9799C60.2901 66.1206 61.8267 66.2613 63.3775 66.3736C64.3033 66.4562 65.2361 66.4071 66.148 66.2277C67.2 66.0995 68.1735 65.6059 68.8984 64.833C69.6234 64.0602 70.0537 63.0571 70.1143 61.9992C70.3025 60.8358 70.0868 59.643 69.5033 58.6191C68.9197 57.5952 68.0033 56.8018 66.9063 56.3708C65.9105 56.0264 64.8856 55.7727 63.8442 55.6127C51.0132 52.6658 37.9002 51.1209 24.7358 51.005C24.171 51.0184 23.6 50.945 22.9542 50.8621C22.1994 50.7651 21.3424 50.655 20.2737 50.655Z" fill="white"/>
</svg>
