<svg width="108" height="58" viewBox="0 0 108 58" fill="none" xmlns="http://www.w3.org/2000/svg">
<path fill-rule="evenodd" clip-rule="evenodd" d="M34.5729 12.3569C34.5314 15.3543 33.3334 18.2197 31.2291 20.3547C29.1248 22.4898 26.277 23.7293 23.2804 23.8144C21.6695 23.9249 20.0529 23.7069 18.5287 23.1738C17.0045 22.6407 15.6046 21.8035 14.4137 20.7131C13.2228 19.6226 12.2659 18.3016 11.601 16.8302C10.936 15.3588 10.577 13.7676 10.5456 12.1533C10.5141 10.5389 10.811 8.93502 11.4181 7.43884C12.0253 5.94267 12.9301 4.5854 14.0776 3.44942C15.2251 2.31343 16.5914 1.42237 18.0936 0.830323C19.5959 0.238274 21.2028 -0.0424609 22.8168 0.00519299C24.4026 0.0351206 25.9667 0.379459 27.4185 1.01819C28.8702 1.65692 30.1808 2.57736 31.2743 3.72621C32.3677 4.87507 33.2223 6.22949 33.7886 7.71099C34.3548 9.19249 34.6214 10.7716 34.5729 12.3569ZM62.4821 35.0772L62.4824 35.0769C64.9531 33.0043 67.3945 30.9563 69.7418 28.8142C71.1517 27.4005 72.9818 26.4815 74.9578 26.1949C76.9339 25.9084 78.9496 26.2697 80.7031 27.2247C88.0548 30.5361 95.4397 33.8477 102.924 36.828C103.755 37.1417 104.515 37.6195 105.157 38.2329C105.8 38.8464 106.313 39.5828 106.665 40.3985C107.017 41.2142 107.202 42.0924 107.208 42.9809C107.214 43.8694 107.041 44.7499 106.699 45.5701C106.437 46.432 105.993 47.2276 105.397 47.9032C104.801 48.5787 104.067 49.1184 103.244 49.4857C102.422 49.8531 101.53 50.0395 100.629 50.0324C99.7281 50.0252 98.8393 49.8248 98.0226 49.4445C93.1215 47.855 88.2866 46.1331 83.3854 44.378L79.2791 43.0203C78.5278 43.8101 77.7682 44.5886 77.0107 45.3649L77.0106 45.3651C75.1637 47.2578 73.3299 49.1372 71.6625 51.1333C69.6293 53.6031 66.9435 55.4527 63.9108 56.4713C60.8782 57.4899 57.6205 57.6368 54.5085 56.8952C44.9463 55.3103 35.8341 51.6971 27.7842 46.2986C27.2534 45.9061 26.688 45.5625 26.0952 45.2721C25.6674 45.0893 25.2241 44.9452 24.7706 44.8416L14.5709 49.7094C13.8889 50.1192 13.181 50.4843 12.4516 50.8022C7.41796 52.5241 4.96735 51.2327 3.70895 46.0337C3.40821 44.7845 3.22059 43.503 3.03321 42.223L3.03319 42.2229C2.95234 41.6707 2.87154 41.1187 2.78171 40.5698C2.56115 39.317 2.33589 38.0666 2.11094 36.818L2.11092 36.8179C1.49152 33.3797 0.874479 29.9545 0.364326 26.5293C0.126534 24.3297 0.00488778 22.119 0 19.9065C0.706274 19.2967 1.45917 18.7431 2.25185 18.2508C3.06262 17.644 4.02282 17.2687 5.03012 17.1647C6.03742 17.0607 7.05416 17.2319 7.97181 17.6601C8.88947 18.0883 9.67364 18.7575 10.2409 19.5963C10.8082 20.4351 11.1374 21.4121 11.1931 22.4232C11.548 23.9392 11.8713 25.4551 12.1939 26.9673L12.1939 26.9673C12.5337 28.5601 12.8726 30.1485 13.2463 31.7283C13.4305 32.5343 13.6948 33.3082 14.0281 34.2839L14.0281 34.2839C14.174 34.7113 14.3332 35.1775 14.5047 35.702L38.9772 20.2708L37.7519 17.7209C39.207 13.1673 38.9239 8.23627 36.9572 3.87915C39.072 5.11565 41.0982 6.26747 43.0595 7.38245L43.0595 7.38247C46.7184 9.46249 50.1518 11.4143 53.5151 13.5486C56.5286 15.4692 56.6279 18.7806 53.9786 21.8272C52.7606 23.1831 51.383 24.4114 50.012 25.6338L50.0119 25.6339C49.4075 26.1728 48.8042 26.7107 48.2165 27.2579L44.905 30.5693C49.0683 33.9953 53.9101 36.5007 59.1116 37.9207C60.2371 36.9604 61.3626 36.0163 62.4821 35.0772ZM100.683 31.3485C101.194 31.5314 101.693 31.7099 102.162 31.8944C106.6 26.8611 105.407 22.0264 99.8109 20.172C92.0838 17.7216 84.3568 15.3263 76.6298 12.9862C75.245 12.5528 73.8274 12.2316 72.391 12.0258C71.0729 11.6456 69.6599 11.7751 68.4329 12.3886C67.2058 13.0021 66.2545 14.0547 65.7679 15.3373C64.2129 19.1134 62.8787 22.9815 61.5459 26.8456C61.0905 28.1661 60.6352 29.486 60.1713 30.8017C62.8862 29.274 65.4097 27.4287 67.6885 25.3047C69.5709 23.5043 71.973 22.3432 74.5532 21.9865C77.1335 21.6298 79.7605 22.0957 82.0608 23.3178C86.4571 25.3802 91.0314 27.3315 95.6013 29.2808C96.608 29.7102 97.6144 30.1395 98.6186 30.5699C99.2997 30.8536 100.002 31.1049 100.683 31.3485Z" fill="white"/>
</svg>
