<svg width="54" height="88" viewBox="0 0 54 88" fill="none" xmlns="http://www.w3.org/2000/svg">
<path fill-rule="evenodd" clip-rule="evenodd" d="M37.1627 15.7843C37.7271 14.4159 38.01 12.9477 37.9943 11.4676C38.0167 9.98151 37.7457 8.50559 37.1968 7.12443C36.6478 5.74326 35.8317 4.48396 34.7953 3.41869C33.7588 2.35342 32.5224 1.5031 31.1567 0.916456C29.7911 0.32981 28.3231 0.0184092 26.8369 0C23.8403 0 20.9665 1.19033 18.8476 3.30914C16.7287 5.42795 15.5383 8.30168 15.5383 11.2981C15.5381 14.2703 16.709 17.1228 18.7975 19.2376C20.8859 21.3523 23.7237 22.5591 26.6957 22.5963C28.1755 22.6343 29.6478 22.3737 31.0247 21.83C32.4015 21.2864 33.6546 20.4708 34.7093 19.4321C35.7639 18.3934 36.5983 17.1527 37.1627 15.7843ZM25.6511 25.2513C22.9223 24.8006 20.2447 24.0816 17.6573 23.1046C11.6125 24.1214 8.67486 28.33 9.80472 34.9959C10.7634 40.6516 11.9457 46.2871 13.1275 51.9194C13.3385 52.9254 13.5496 53.9312 13.7593 54.9371C14.704 57.689 15.3757 60.5272 15.7648 63.4107C15.5925 66.7376 16.7049 70.0037 18.8719 72.534C18.5288 73.5585 18.3106 74.6206 18.2222 75.6974C18.1531 77.4332 18.3629 79.1688 18.8437 80.8381C19.6346 82.8435 20.9904 84.9055 23.4761 84.736C24.4971 84.6568 25.5669 84.7551 26.6401 84.8537C29.397 85.1069 32.1766 85.3623 34.2098 82.6176C35.1152 81.525 35.7507 80.2346 36.0648 78.8508C36.3788 77.467 36.3626 76.0287 36.0175 74.6524C35.8581 74.0146 35.6565 73.3487 35.4524 72.6745L35.4523 72.6743L35.4521 72.6736C35.367 72.3926 35.2815 72.1102 35.1985 71.8278C36.3361 69.8738 37.174 67.7601 37.6842 65.5574C37.7632 65.1095 37.7562 64.6372 37.7492 64.1603C37.7412 63.6144 37.733 63.0627 37.8536 62.5351C38.3939 60.0515 38.9388 57.5678 39.4837 55.0842L39.4851 55.0781C40.8484 48.8642 42.2117 42.6503 43.503 36.4364C43.8824 34.5789 44.0153 32.6796 43.8984 30.7873C43.7814 29.4287 43.3139 28.1236 42.5415 26.9998C41.7692 25.8759 40.7184 24.9717 39.4919 24.3756C38.475 23.6645 37.2777 23.2553 36.0382 23.1954C34.7988 23.1354 33.5676 23.427 32.4867 24.0367C30.3542 25.0342 27.9968 25.4531 25.6511 25.2513ZM26.3855 50.1636H26.9787V50.2766L27.0162 50.0726C27.6524 46.6152 28.2645 43.2884 29.0124 39.8258L31.6676 39.5434C30.6449 45.5412 29.7845 51.2686 28.9011 57.1489L28.843 57.5357H24.6342L22.0073 39.7693H24.6342C24.8116 40.8254 24.9865 41.8738 25.1604 42.9162L25.1605 42.9169C25.5679 45.3593 25.9698 47.7684 26.3855 50.1636ZM33.9113 66.5376C33.7225 67.4967 33.2792 68.3873 32.628 69.1163H32.5715C30.883 68.1968 28.9838 67.734 27.0616 67.7736C25.1394 67.8132 23.261 68.3539 21.6119 69.3422C20.7357 68.7873 20.074 67.9513 19.7353 66.9711C19.3966 65.9909 19.401 64.9248 19.7476 63.9474C20.3125 61.8572 22.4309 61.5465 24.0975 61.5465H29.1254C30.8767 61.5465 32.854 61.716 33.7014 63.6649C34.0277 64.5863 34.1001 65.5785 33.9113 66.5376ZM23.5891 74.2287C22.5112 75.9993 21.6573 77.8968 21.0469 79.8778C20.3064 78.5703 20.0671 77.038 20.3738 75.567C20.6805 74.096 21.5121 72.787 22.7134 71.8843C23.9303 71.1009 25.2656 70.5191 26.6679 70.1614C26.8826 70.0898 27.1765 70.2788 27.5856 70.5418C27.8225 70.6941 28.0981 70.8712 28.4192 71.037C26.6777 71.8872 25.0541 72.9601 23.5891 74.2287ZM46.251 51.4521L46.2512 51.4522C47.6327 52.119 48.8689 52.7157 50.1402 53.2423C51.2735 53.6251 52.2244 54.4148 52.8088 55.4584C53.3932 56.502 53.5697 57.7252 53.3039 58.8914C52.8896 62.1869 52.5506 65.4824 52.2117 68.7778C52.0422 70.4253 51.8727 72.0727 51.6939 73.7202C51.3831 76.7424 51.0724 79.7647 50.7052 82.787C50.6925 83.3824 50.5568 83.9688 50.3068 84.5093C50.0567 85.0499 49.6977 85.5329 49.2521 85.9281C48.8065 86.3232 48.284 86.622 47.7175 86.8057C47.1509 86.9894 46.5525 87.0541 45.9598 86.9955C45.3644 87.0337 44.7673 86.952 44.204 86.7555C43.6407 86.5589 43.1226 86.2514 42.6802 85.8512C42.2378 85.4509 41.8801 84.9661 41.6283 84.4252C41.3766 83.8843 41.2358 83.2985 41.2144 82.7023C40.8472 77.0532 40.5082 71.2064 40.4517 65.4443C40.6809 63.4438 41.1261 61.474 41.7793 59.5693C42.1665 57.8108 42.5353 56.0891 42.9119 54.3306C43.1947 53.0104 43.4819 51.6695 43.7848 50.2766C44.6721 50.69 45.4839 51.0818 46.251 51.4521ZM10.3507 53.707C10.1048 52.6023 9.85159 51.4644 9.57838 50.2766C7.4956 51.1726 5.66197 52.0686 3.82828 52.9647C3.52329 53.1137 3.2183 53.2627 2.91216 53.4118C1.90926 53.8129 1.07809 54.5519 0.562311 55.5009C0.0465265 56.4499 -0.121451 57.5493 0.0875127 58.609C0.878415 66.5459 1.72588 74.5111 2.62977 82.4481C2.7239 83.7017 3.30033 84.87 4.23794 85.7075C5.17555 86.545 6.40133 86.9864 7.65764 86.9391C8.27933 86.9531 8.89696 86.8362 9.47054 86.596C10.0441 86.3558 10.5608 85.9977 10.987 85.5449C11.4132 85.0921 11.7394 84.5547 11.9444 83.9676C12.1495 83.3806 12.2287 82.757 12.177 82.1373C12.5348 76.6577 12.855 71.1593 13.1375 65.6421C13.1161 64.8552 12.9829 64.0753 12.742 63.3259C12.5782 62.7017 12.4034 62.0775 12.2282 61.452C11.9197 60.3508 11.6101 59.2456 11.3579 58.1288C11.0142 56.6885 10.6894 55.2292 10.3507 53.707Z" fill="white"/>
</svg>
