<svg width="65" height="80" viewBox="0 0 65 80" fill="none" xmlns="http://www.w3.org/2000/svg">
<path d="M42.5 15.0006C46.6422 15.0006 50 11.6426 50 7.50029C50 3.35794 46.6422 0 42.5 0C38.3578 0 35 3.35794 35 7.50029C35 11.6426 38.3578 15.0006 42.5 15.0006ZM17.7641 49.6066L15.4516 55.0006H5C2.23906 55.0006 0 57.2397 0 60.0008C0 62.7618 2.23906 65.001 5 65.001H17.1016C20.1094 65.001 22.8172 63.2134 23.9937 60.4555L25.3672 57.2491L23.7 56.2647C20.9937 54.6662 19.0031 52.3005 17.7641 49.6066ZM60 34.9998H53.1203L49.0484 26.6792C47.0953 22.6868 43.5094 19.768 39.3953 18.7195L28.2891 15.4162C23.8672 14.3537 19.2625 15.3303 15.6578 18.0945L9.45938 22.8462C7.26719 24.526 6.85156 27.6636 8.53438 29.8559C10.2172 32.0481 13.3531 32.4591 15.5438 30.7809L21.7453 26.0291C22.9438 25.1088 24.4703 24.7791 25.6938 25.0697L27.9906 25.7526L22.1375 39.4078C20.1656 44.0142 21.9328 49.4097 26.2469 51.9567L39.525 59.7961L35.2328 73.5044C34.4078 76.1389 35.875 78.9437 38.5094 79.7687C39.0078 79.925 39.5109 80 40.0063 80C42.1328 80 44.1047 78.6296 44.775 76.492L49.7188 60.7008C50.6422 57.4554 49.2672 53.9693 46.3375 52.202L36.7688 46.5549L41.6609 34.3232L44.8281 40.7969C46.0781 43.3501 48.7219 44.9986 51.5641 44.9986H60C62.7609 44.9986 65 42.7595 65 39.9984C65 37.2374 62.7609 34.9998 60 34.9998Z" fill="white"/>
</svg>
