<svg width="76" height="94" viewBox="0 0 76 94" fill="none" xmlns="http://www.w3.org/2000/svg">
<path d="M49.6923 17.6257C54.5355 17.6257 58.4615 13.6801 58.4615 8.81284C58.4615 3.94558 54.5355 0 49.6923 0C44.8491 0 40.9231 3.94558 40.9231 8.81284C40.9231 13.6801 44.8491 17.6257 49.6923 17.6257ZM20.7703 58.2878L18.0664 64.6257H5.84615C2.61798 64.6257 0 67.2567 0 70.5009C0 73.7451 2.61798 76.3761 5.84615 76.3761H19.9957C23.5125 76.3761 26.6786 74.2758 28.0542 71.0352L29.6601 67.2677L27.7108 66.111C24.5465 64.2328 22.219 61.4531 20.7703 58.2878ZM70.1538 41.1248H62.1099L57.3489 31.348C55.0653 26.657 50.8725 23.2274 46.0622 21.9954L33.0764 18.1141C27.9063 16.8656 22.5223 18.0131 18.3076 21.261L11.0602 26.8443C8.49702 28.818 8.01106 32.5047 9.97865 35.0806C11.9463 37.6565 15.6129 38.1394 18.1742 36.1675L25.4253 30.5842C26.8265 29.5028 28.6114 29.1154 30.0419 29.4569L32.7275 30.2593L25.8838 46.3041C23.5783 51.7167 25.6445 58.0564 30.6887 61.0491L46.2138 70.2604L41.1953 86.3677C40.2307 89.4632 41.9462 92.7589 45.0263 93.7283C45.6091 93.9119 46.1974 94 46.7765 94C49.263 94 51.5686 92.3898 52.3523 89.8782L58.1327 71.3234C59.2124 67.5101 57.6047 63.4139 54.1792 61.3374L42.9912 54.7021L48.7113 40.3298L52.4144 47.9364C53.876 50.9364 56.9671 52.8734 60.2903 52.8734H70.1538C73.382 52.8734 76 50.2424 76 46.9982C76 43.7539 73.382 41.1248 70.1538 41.1248Z" fill="white"/>
</svg>
