<svg width="80" height="85" viewBox="0 0 80 85" fill="none" xmlns="http://www.w3.org/2000/svg">
<path fill-rule="evenodd" clip-rule="evenodd" d="M41.4017 14.3226C42.9751 15.896 45.1091 16.7799 47.3342 16.7799C49.5594 16.7799 51.6934 15.896 53.2668 14.3226C54.8402 12.7492 55.7242 10.6151 55.7242 8.38996C55.7242 6.16481 54.8402 4.03081 53.2668 2.45739C51.6934 0.883965 49.5594 0 47.3342 0C45.1091 0 42.9751 0.883965 41.4017 2.45739C39.8282 4.03081 38.9443 6.16481 38.9443 8.38996C38.9443 10.6151 39.8282 12.7492 41.4017 14.3226ZM36.3422 27.4002C30.2091 25.6745 24.7398 24.108 19.2704 22.515C18.366 22.2965 17.4786 22.0125 16.6154 21.6653C15.5134 21.3132 14.5964 20.5378 14.0661 19.5096C13.5358 18.4814 13.4357 17.2847 13.7878 16.1827C14.1398 15.0806 14.9153 14.1636 15.9435 13.6333C16.9717 13.1031 18.1684 13.003 19.2704 13.3551C23.0254 14.2386 26.762 15.2324 30.5108 16.2294L30.5108 16.2294C31.2681 16.4308 32.0259 16.6324 32.7845 16.8332C46.3782 20.4706 60.2375 20.2316 74.1233 19.7803C78.5306 19.6475 80.8936 21.8247 79.4333 25.0904C78.9356 25.8996 78.2707 26.593 77.4831 27.1242C76.6955 27.6554 75.8034 28.012 74.8667 28.1702C68.6008 29.0198 62.2287 29.4712 55.9098 29.896C55.0811 29.8522 54.2621 30.091 53.5869 30.5734C52.9116 31.0557 52.4201 31.753 52.1927 32.551C48.9222 39.2407 43.9619 44.9607 37.8025 49.1451C36.7099 49.9998 35.9952 51.2482 35.8112 52.6232C35.0413 61.6769 34.4306 70.7837 33.8996 79.864C33.9351 80.4507 33.841 81.0381 33.6242 81.5845C33.4074 82.1309 33.0731 82.623 32.645 83.0258C32.2168 83.4286 31.7054 83.7324 31.1468 83.9155C30.5882 84.0986 29.9961 84.1567 29.4126 84.0855C28.8269 84.158 28.2324 84.1036 27.6696 83.9261C27.1067 83.7486 26.5886 83.4521 26.1504 83.0567C25.7123 82.6614 25.3642 82.1763 25.13 81.6346C24.8958 81.0929 24.7808 80.5071 24.7929 79.9171L24.6873 78.3715C24.1383 70.3345 23.5879 62.2769 23.014 54.2428C23.014 53.0746 23.014 51.9063 22.7485 50.7647C22.1965 48.2471 22.4359 45.6204 23.434 43.2441C24.432 40.8678 26.14 38.8579 28.3241 37.4894C30.5305 35.8542 32.52 33.9449 34.2448 31.8076C35.111 30.424 35.8147 28.9451 36.3422 27.4002ZM10.7212 42.7993L19.5093 42.3745C19.35 45.7464 19.1907 48.9856 18.9783 52.9947C17.5727 52.8565 16.167 52.7449 14.7651 52.6336L14.765 52.6336L14.7648 52.6335C11.3214 52.3602 7.90123 52.0886 4.56154 51.4282C3.7238 51.3477 2.91957 51.0588 2.22203 50.5879C1.52449 50.117 0.955813 49.479 0.567868 48.7322C0.179922 47.9853 -0.0149622 47.1532 0.000895923 46.3118C0.016754 45.4703 0.242886 44.6462 0.658697 43.9145C2.65881 38.6044 4.80936 33.2943 7.11038 27.9842C7.28741 27.3082 7.61214 26.6799 8.06117 26.1445C8.5102 25.6091 9.07233 25.18 9.70715 24.8879C10.342 24.5959 11.0336 24.4483 11.7324 24.4557C12.4311 24.4631 13.1195 24.6254 13.7479 24.9309C16.0047 25.9929 16.5623 28.2231 15.2613 31.5685C14.1461 34.4362 12.8358 37.6356 11.4307 41.0664L11.4306 41.0667C11.1966 41.638 10.96 42.2157 10.7212 42.7993Z" fill="white"/>
</svg>
